<?xml version="1.0" encoding="UTF-8"?>
<svg id="Layer_1" data-name="Layer 1" xmlns="http://www.w3.org/2000/svg" viewBox="0 0 223.1 318.5">
  <defs>
    <style>
      .cls-1 {
        fill: #eb3f38;
      }

      .cls-2 {
        fill: #ec5e58;
      }

      .cls-3 {
        stroke: #f8f7d3;
      }

      .cls-3, .cls-4, .cls-5, .cls-6, .cls-7, .cls-8, .cls-9, .cls-10 {
        fill: none;
      }

      .cls-3, .cls-11, .cls-5, .cls-6, .cls-7, .cls-8, .cls-12, .cls-9, .cls-10 {
        stroke-linecap: round;
        stroke-linejoin: round;
      }

      .cls-4, .cls-11, .cls-13 {
        stroke-width: 2px;
      }

      .cls-4, .cls-14, .cls-13 {
        stroke: #231f20;
        stroke-miterlimit: 10;
      }

      .cls-11 {
        fill: #84c66d;
        stroke: #379946;
      }

      .cls-15 {
        fill: #9ccc72;
      }

      .cls-16 {
        font-family: ArialMT, Arial;
        font-size: 37.2px;
      }

      .cls-16, .cls-17 {
        isolation: isolate;
      }

      .cls-16, .cls-14 {
        fill: #231f20;
      }

      .cls-5 {
        stroke: #f4ecbb;
      }

      .cls-18 {
        fill: #bad86b;
      }

      .cls-19 {
        fill: #f1be75;
      }

      .cls-6 {
        stroke: #e98b35;
      }

      .cls-20 {
        fill: #f6f4ca;
      }

      .cls-21, .cls-13 {
        fill: #fff;
      }

      .cls-22 {
        fill: #f7b43b;
      }

      .cls-7 {
        stroke: #77ad42;
      }

      .cls-8 {
        stroke: #f2bf70;
      }

      .cls-12 {
        fill: #deecc2;
      }

      .cls-12, .cls-10 {
        stroke: #417065;
      }

      .cls-9 {
        stroke: #f3edbe;
      }

      .cls-23 {
        fill: #faf9df;
      }
    </style>
  </defs>
  <path class="cls-13" d="M85.6,80.3c-4.4,11.6-2.9,24.2,4.5,32.4,11.4,12.7,35,12.7,44.1,0,6-8.2,4.6-20,0-27.9-6.3-11-20.3-17.2-32.4-13.4-8.7,2.7-13.4,9.7-14.9,12.2"/>
  <path class="cls-4" d="M67,297.8s6.7,5.3,14.1,1.8,8-47.2,8-47.2l19.1-48.5s1.5-4.1,2.6-35.8,0-46.1,0-46.1"/>
  <path class="cls-4" d="M108.1,204l14.3,45.5s-.5,43.5,3,49.9c3.5,6.4,12.9,0,12.9,0"/>
  <path class="cls-4" d="M38.1,174s40.8-8.7,45.1-12.4,27.5-39.4,27.5-39.4"/>
  <path class="cls-4" d="M168.5,187.7s-31.7-24.9-35-29.5-22.4-36-22.4-36"/>
  <circle class="cls-14" cx="97" cy="92" r="2.1"/>
  <circle class="cls-14" cx="123.6" cy="92" r="2.1"/>
  <path class="cls-4" d="M103.8,96.3s1.3,4.2,6.6,4.5,6.3-4.5,6.3-4.5"/>
  <g class="cls-17">
    <text class="cls-16" transform="translate(132.8 68.7) rotate(24.3)"><tspan x="0" y="0">?</tspan></text>
  </g>
  <g id="Generative_Object" data-name="Generative Object">
    <g>
      <path class="cls-15" d="M186.3,94.4h0c.4.2.9.6,1.3.8s0,0,.1,0c13.4,5.8,25.9-14.3,13.7-23.6-12.5-9.5-29,8.9-18.4,20.4-.1.4,0,.4-.4.5-6.2,1.6-10.6-7.7-8.9-13.1s2.2-3,2.8-4.2.2-1.6.5-2.3c.9-2.3,3.1-4.3,5.5-4.8s1.9,0,2.2-.2,1.6-1.8,2.3-2.2c2.4-1.6,5.3-1.7,7.8-.4s.9.9,1.3.9c.6,0,1.6-.3,2.3-.3,4.4-.2,8.1,2.2,9.2,6.6s.2,2.3.4,2.7,1,.7,1.2,1c2.1,2.3,2.8,5.5,1.4,8.5s-1.2,1.8-1.2,2c0,.4.3,1.2.4,1.6.2,2.7-.7,5.3-2.9,7s-1.9.9-2.3,1.4-.9,1.5-1.3,2c-4.7,5.5-15.7,4.3-17-3.4s-.1-.5,0-.7h0v-.2Z"/>
      <path class="cls-12" d="M186.3,94.4c-1.3-.7-2.2-1.3-3.2-2.4-10.6-11.5,5.9-29.9,18.4-20.4,12.2,9.3-.3,29.4-13.7,23.6h-.1c-.4-.2-.8-.6-1.3-.8s0,0,0,0h-.1Z"/>
    </g>
    <g>
      <line class="cls-10" x1="197.6" y1="76.5" x2="182.2" y2="97.1"/>
      <polyline class="cls-10" points="194.1 90.8 186.6 91.2 184.9 83.8"/>
      <polyline class="cls-10" points="188.8 79.7 190.4 86.1 196.9 86"/>
      <polyline class="cls-10" points="192.3 75.5 193.9 81.6 200.4 81.4"/>
      <path class="cls-10" d="M186.3,95.1c1.3,7.7,12.3,9,17,3.4s1-1.7,1.3-2c.5-.4,1.7-.8,2.3-1.4,2.1-1.7,3.1-4.3,2.9-7s-.4-1.3-.4-1.6,1-1.5,1.2-2c1.3-2.9.7-6.1-1.4-8.5s-1.1-.7-1.2-1c-.2-.5-.2-2-.4-2.7-1-4.3-4.8-6.8-9.2-6.6s-1.7.4-2.3.3-1-.7-1.3-.9c-2.5-1.3-5.4-1.2-7.8.4-2.4,1.6-2.1,2.2-2.3,2.2-.3.1-1.6,0-2.2.2-2.4.5-4.6,2.5-5.5,4.8s-.3,1.9-.5,2.3c-.6,1.2-2.1,2.1-2.8,4.2-1.7,5.4,2.7,14.7,8.9,13.1"/>
    </g>
  </g>
  <g id="Generative_Object1" data-name="Generative Object1">
    <g>
      <g>
        <path class="cls-2" d="M98.9,26.3c-.2.2-.2.5-.2.7.7.5,3.1-1.4,3.4-1.2.2.5,0,3.2.7,3.2,1-.2,1.4-4,1.8-4.2.6,0,4.5,1.3,4.6.7s-2.1-1.8-2.6-2.3c.3-.2,4.5-2.5,2.2-2.4v-.8c10-1.9,15.3,8.6,10.6,16.5s-10,7.4-13.7,6.9c-8.5-1.1-14-10.6-7.4-17.4l.7.3h-.1Z"/>
        <path class="cls-21" d="M97.2,32.7c.8-.5,2,1.4,2.2,1.9s1.1,2.9.2,3.2-3.5-4.4-2.4-5.1Z"/>
      </g>
      <path class="cls-11" d="M108.7,20.8c2.3,0-1.8,2.2-2.2,2.4.5.6,2.8,1.6,2.6,2.3s-4-.7-4.6-.7c-.4.2-.8,3.9-1.8,4.2-.7,0-.4-2.7-.7-3.2-.2-.1-2.7,1.7-3.4,1.2,0-.3,0-.5.2-.7.2-.3,2.1-1.9,2.1-2.1l-2.6-1.1c.3-.7,3.3-.9,3.4-1.2-.2-1.2-1.2-2.4-.8-3.6.6-.3,2.1,2.2,2.6,2.6.8-.3,1.9-2.4,2.7-2.3s-.5,2.6-.4,2.9c.1.1,2.6-.7,3-.8l-.1.1Z"/>
    </g>
    <path class="cls-1" d="M99.2,26.4c-3.9,3.6-3.8,9.4,0,13,2.7,2.6,6.6,3.9,10.3,2.4,4-1.5,8.7-3.7,9.9-8.2,1.9-5.4-1.1-12-7.1-12.7-.6-.1-1.2,0-1.8-.1-.4,0-1.2.1-1.6.2h-.3s.3,0,.5-.2c-.8.2-1.6.3-2.4.5-1,.2-2,.9-3,.7,0-.2.3-.5.4-.6,1.4-1.1,2.3-1.6,3.7-2.2.3-.3.7-.3.7-.3,10.6-2,16.9,9.3,11.4,18.3-2.4,3.2-6.2,5.1-9.8,6.4-5.6,2.3-12.4-1.2-14.9-6.4-2.4-4.9-.3-11.4,4.7-13.7.9-.5,2.3-1.2,2.5-1.2.5,0,.7,0,.4.4-.4.6-1.7,1.5-1.8,1.6-.6.7-1.3,1.3-1.9,2h0l.1.1Z"/>
  </g>
  <g id="Generative_Object2" data-name="Generative Object2">
    <g>
      <path class="cls-22" d="M36.2,67.9c2.8,1.4,4.3,4.9,2.8,7.8s-1,1.8-1.6,1.6c-1.4,2.3-5.7,6.2-7.7,8.3s-3.7,4.2-5.2,4.3c-3.2.2-.5-6.6.2-7.8-.2,0-.3-.4-.3-.5,0-.7,1.6-4.9,2-5.9,1.5-4.2,3.8-10.7,9.7-7.7l.1-.1Z"/>
      <g>
        <path class="cls-18" d="M41.4,65c-.6.9-1.6,1.6-2.6,2h0l-1.5.2h0c-.1-.4-.2-.8-.3-1.2s0-.3-.1-.5,0,0,0,0h0c.3-1.3-.1-1.5.7-2.9s2.1-2.5,3.5-2.9,1.2-.1,1.4,1-.2,3.3-.9,4.3c-.7,1,0,0,0,0h-.2Z"/>
        <path class="cls-18" d="M37.4,62.5c-.8,1.4-.4,1.5-.7,2.8h0v.1c0,.2,0,.3.1.5l-.6.2c0,.1-.2.4-.3.5s0,0,0,0c-.3.3-1.7-.9-2-1.2-1.2-1.4-1.5-3.5-1.1-5.2s.8-2.3,2.3-1.2,1.4,1.8,2,3.1.1.2.2.3l.1.1Z"/>
        <path class="cls-18" d="M38.8,66.9h0c1-.4,2-1,2.6-2s0,0,0,0h.2c1.1-.2,4.1,0,4.7,1.1s-1,1.9-1.5,2.3c-1.6,1.1-3.7,1.6-5.5.8s-1.4-.8-.7-2h0l.2-.2Z"/>
      </g>
    </g>
    <g>
      <line class="cls-9" x1="30.3" y1="83.8" x2="29.2" y2="83.1"/>
      <line class="cls-8" x1="32.8" y1="81.2" x2="31.2" y2="80.2"/>
      <line class="cls-3" x1="33.6" y1="73.8" x2="37.5" y2="76.2"/>
      <path class="cls-19" d="M27.3,87.2l-1.5-.9c-.6-.3,0-1.2.5-.9l1.5.9c.2,0,.4.3.2.5-.2.1-.5.5-.7.4h0Z"/>
      <line class="cls-5" x1="26.3" y1="79.7" x2="26.7" y2="80"/>
      <path class="cls-6" d="M37.5,77s0,.1-.1.2c-1.4,2.3-5.7,6.2-7.7,8.3s-3.7,4.2-5.2,4.3c-3.2.2-.5-6.6.2-7.8s0-.1,0-.2"/>
      <path class="cls-23" d="M32,68.2l3.1,1.9c.6.3,0,1.2-.5.9-.7-.4-3.4-2.1-4-2.4.3-.1.9-.4,1.2-.5,0,0,.2.1.3.2h0l-.1-.1Z"/>
      <path class="cls-20" d="M28.8,72.9l1.7,1.1c.2.1.3.5.2.7-.1.2-.5.3-.7.2-.3-.2-1.8-1.2-2.1-1.3l.5-.8.4.3h0v-.2Z"/>
      <path class="cls-7" d="M41.7,65c1.1-.3,4.1,0,4.7,1s-1,1.9-1.5,2.3c-1.6,1.1-3.7,1.6-5.5.8s-1.4-.8-.7-2h0c1-.5,2-1.1,2.6-2s0,0,0,0c.7-1,1.1-3.1.9-4.3s-.4-1.2-1.4-1-2.8,1.7-3.5,2.9-.4,1.5-.7,2.8-.3.6-.4.8-.2.4-.3.5h0"/>
      <line class="cls-7" x1="36" y1="66.7" x2="34.7" y2="61.5"/>
      <line class="cls-7" x1="37.2" y1="67.2" x2="39.3" y2="63.9"/>
      <polyline class="cls-7" points="38.8 66.9 37.3 67.2 37.2 67.2"/>
      <path class="cls-7" d="M36.7,65.4h0c0,.2,0,.4.1.6.1.4.2.8.3,1.1h0"/>
      <path class="cls-7" d="M36,66.7c-.3.3-1.7-.9-2-1.2-1.2-1.4-1.5-3.5-1.1-5.2s.8-2.3,2.3-1.2,1.4,1.8,2,3.1"/>
    </g>
  </g>
</svg>